    <svg width="30" height="30" viewBox="0 0 20 23" aria-hidden="true">
        <path 
          className="fill-[#175cff] dark:fill-white align-middle"
          d="M2.74507 10.885V15.9969L9.60114 20.0807L16.4649 15.9969V9.27724L10.613 12.753C9.97071 13.1318 9.23413 13.1318 8.5893 12.753L0.62963 8.01473C-0.2089 7.50972 -0.2089 6.24721 0.62963 5.74994L8.59185 1.00135C9.23413 0.622597 9.97071 0.622597 10.6155 1.00135L16.4674 4.49258L13.7734 6.09262L9.60369 3.61655L7.65392 4.78631L4.12903 6.8965L5.98705 7.99927L9.60624 10.1765L17.0052 5.78086C17.4232 5.53351 17.9941 5.56958 18.4146 5.78859C18.8709 6.03078 19.2098 6.49714 19.2098 7.08975V16.4452C19.2098 17.1744 18.8479 17.8108 18.226 18.1844L10.6181 22.7114C9.98345 23.0979 9.23923 23.0979 8.5944 22.7114L0.983903 18.1792C0.362014 17.8056 0.0077414 17.1795 0.0077414 16.4401V9.25405L2.74507 10.8824V10.885Z">
        </path>
    </svg>